<svg width="19" height="34" viewBox="0 0 19 34" fill="none" xmlns="http://www.w3.org/2000/svg">
<path d="M0.387199 17.914L16.6632 33.6083C17.1795 34.1306 18.049 34.1306 18.5924 33.6083C19.1359 33.1121 19.1359 32.2765 18.5924 31.7542L4.59885 18.3057C4.59885 18.3057 4.01587 17.746 4.01587 17.0148C4.01587 16.2836 4.59885 15.7612 4.59885 15.6943L18.5924 2.24578C19.1359 1.7235 19.1359 0.913982 18.5924 0.391708C18.3207 0.130569 17.9675 0 17.6414 0C17.3153 0 16.9349 0.130569 16.6904 0.391708L0.387199 16.0599C-0.129068 16.5561 -0.129068 17.3917 0.387199 17.914Z" fill="#DFDFDF"/>
</svg>
