<svg width="19" height="34" viewBox="0 0 19 34" fill="none" xmlns="http://www.w3.org/2000/svg">
<path d="M18.6128 16.086L2.33679 0.391705C1.82052 -0.130568 0.951019 -0.130568 0.40758 0.391705C-0.13586 0.887865 -0.13586 1.7235 0.40758 2.24578L14.4011 15.6943C14.4011 15.6943 14.9841 16.254 14.9841 16.9852C14.9841 17.7164 14.4011 18.2388 14.4011 18.3057L0.40758 31.7542C-0.13586 32.2765 -0.13586 33.086 0.40758 33.6083C0.679299 33.8694 1.03253 34 1.3586 34C1.68466 34 2.06507 33.8694 2.30962 33.6083L18.6128 17.9401C19.1291 17.4439 19.1291 16.6083 18.6128 16.086Z" fill="#444444"/>
</svg>
