<svg width="19" height="11" viewBox="0 0 19 11" fill="none" xmlns="http://www.w3.org/2000/svg">
<path d="M10.0108 10.7758L18.7811 1.35288C19.073 1.05399 19.073 0.55059 18.7811 0.235967C18.5038 -0.0786557 18.0369 -0.0786557 17.745 0.235967L10.2296 8.33751C10.2296 8.33751 9.91686 8.67502 9.50825 8.67502C9.09965 8.67502 8.80775 8.33751 8.77035 8.33751L1.25499 0.235967C0.963135 -0.0786557 0.510756 -0.0786557 0.218897 0.235967C0.0729675 0.393279 0 0.597783 0 0.786556C0 0.97533 0.0729675 1.19557 0.218897 1.33715L8.97465 10.7758C9.25192 11.0747 9.71889 11.0747 10.0108 10.7758Z" fill="white"/>
</svg>
